<?xml version="1.0" encoding="UTF-8" standalone="no"?>
<!-- Created with Inkscape (http://www.inkscape.org/) -->

<svg
   xmlns:dc="http://purl.org/dc/elements/1.1/"
   xmlns:cc="http://creativecommons.org/ns#"
   xmlns:rdf="http://www.w3.org/1999/02/22-rdf-syntax-ns#"
   xmlns:svg="http://www.w3.org/2000/svg"
   xmlns="http://www.w3.org/2000/svg"
   xmlns:xlink="http://www.w3.org/1999/xlink"
   xmlns:sodipodi="http://sodipodi.sourceforge.net/DTD/sodipodi-0.dtd"
   xmlns:inkscape="http://www.inkscape.org/namespaces/inkscape"
   width="210mm"
   height="297mm"
   viewBox="0 0 210 297"
   version="1.1"
   id="svg8"
   inkscape:version="0.92.1 r15371"
   sodipodi:docname="dove.svg">
  <defs
     id="defs2" />
  <sodipodi:namedview
     id="base"
     pagecolor="#ffffff"
     bordercolor="#666666"
     borderopacity="1.0"
     inkscape:pageopacity="0.0"
     inkscape:pageshadow="2"
     inkscape:zoom="3.959798"
     inkscape:cx="481.45681"
     inkscape:cy="964.34025"
     inkscape:document-units="mm"
     inkscape:current-layer="layer1"
     showgrid="false"
     inkscape:window-width="1680"
     inkscape:window-height="987"
     inkscape:window-x="1432"
     inkscape:window-y="-8"
     inkscape:window-maximized="1" />
  <metadata
     id="metadata5">
    <rdf:RDF>
      <cc:Work
         rdf:about="">
        <dc:format>image/svg+xml</dc:format>
        <dc:type
           rdf:resource="http://purl.org/dc/dcmitype/StillImage" />
        <dc:title></dc:title>
      </cc:Work>
    </rdf:RDF>
  </metadata>
  <g
     inkscape:label="Layer 1"
     inkscape:groupmode="layer"
     id="layer1">
    <path
       style="fill:#e7b733;fill-opacity:1;stroke-width:0.99999994;stroke:none"
       d="M 9.4179688 37.65625 C 6.92471 37.868624 7.0778433 50.4305 11.113281 72.876953 C 20.358307 124.30086 89.800704 232.17557 135.64258 266.32617 C 152.66641 279.00834 158.21456 284.93004 180.66602 314.37695 C 204.82674 346.06574 233.12963 376.00082 258.65234 396.85938 C 281.12413 415.22452 285.32734 421.37006 281.77344 430.67578 C 279.74502 435.98715 277.69314 437.95113 240.52734 470.1543 C 205.23313 500.73578 203.45592 503.23076 209.10742 514.30859 C 212.47002 520.89986 227.27061 531.37393 233.22656 531.37695 C 235.98121 531.37831 236.03648 532.40808 233.56836 537.70898 C 225.46794 555.10668 237.37927 566.27733 257.39258 560.05078 C 262.43664 558.48148 262.72936 558.7067 261.12305 562.93164 C 253.52081 582.927 274.16941 592.58442 291.66992 577.21875 C 294.89887 574.38369 294.89951 574.38385 295.31836 583.14453 C 296.50221 607.90561 312.86386 611.42222 338.5625 592.4375 C 345.3318 587.43673 344.75975 587.34591 346.08594 593.62695 C 347.65812 601.07308 351.81679 609.13293 354.9707 610.8457 C 363.36591 615.40468 373.49601 608.86194 377.7168 596.1543 C 379.63597 590.37623 379.59512 590.38243 382.16406 595.41797 C 393.01637 616.69025 416.62354 611.14991 414.85352 587.74609 C 414.29131 580.31252 414.2915 580.31337 419.9668 585.50391 C 436.66112 600.77221 449.7548 596.23227 450.93359 574.76758 C 451.37894 566.65849 451.37969 566.65876 456.51172 568.61523 C 472.86566 574.84991 482.75308 566.11544 481.80469 546.27148 C 481.29782 535.66587 481.29783 535.66484 484.9707 536.97656 C 501.68211 542.945 509.98908 524.09498 498.19922 506.95898 C 495.14423 502.51872 495.14493 502.51833 500.85156 500.85938 C 525.66522 493.64588 529.46059 477.82727 509.77148 463.68359 C 506.95113 461.65762 504.45314 459.85663 504.2207 459.68164 C 503.98815 459.50669 505.61608 457.80778 507.83984 455.9043 C 514.89237 449.86764 517.67056 438.90302 513.26367 434.49609 C 507.77807 429.01053 485.33921 425.70171 439.14258 423.5625 C 423.64258 422.84477 423.6419 422.84401 426.9082 421.07617 C 429.92007 419.44621 430.52677 419.42723 434.69336 420.8418 C 441.96646 423.31108 447.82238 421.91101 455.86914 415.77344 C 458.92088 413.44574 459.3065 413.37754 461.36914 414.82227 C 466.98446 418.75539 485.14258 412.17063 485.14258 406.20117 C 485.14258 404.64575 485.55761 404.33733 486.89258 404.89844 C 494.92328 408.27401 507.14258 402.87593 507.14258 395.95312 C 507.14258 392.85243 507.59853 392.80532 512.64258 395.37695 C 519.71759 398.98398 527.14458 396.31785 527.14258 390.17188 C 527.14201 388.0341 527.48834 387.90039 532.19922 388.22656 C 543.42823 389.00443 547.64451 386.12261 545.26367 379.29297 C 543.86283 375.2745 543.84266 375.29128 548.67188 376.39258 C 556.86563 378.26115 565.00369 373.43435 563.80078 367.41992 C 563.26859 364.75901 563.47253 364.37604 565.41797 364.37305 C 572.20725 364.36164 578.56259 356.44728 577.66016 349.12695 C 577.07459 344.37742 577.07493 344.37714 580.35938 344.37109 C 592.43872 344.35058 600.43541 336.39237 597.33008 327.48438 C 596.3206 324.58861 596.39094 324.50826 601.74805 322.33398 C 613.51118 317.55967 618.14258 312.21149 618.14258 303.40234 C 618.14258 298.78458 618.39004 298.23431 620.89258 297.29102 C 628.72229 294.3397 633.51815 286.51661 633.55859 276.62695 C 633.58826 269.37695 633.5873 269.37695 638.14258 269.37695 C 646.41566 269.37695 649.19048 264.77203 650.68555 248.55664 C 651.30044 241.88747 651.59572 241.13516 654.00195 240.10547 C 669.93561 233.28704 672.11927 221.15343 659.62695 208.85938 C 654.52788 203.84125 654.52901 203.84039 664.69727 204.2168 C 686.90403 205.03883 694.76961 194.84643 678.18164 186.74414 C 668.87304 182.19741 667.70476 180.95525 671.77539 179.93359 C 682.23331 177.30883 709.50935 150.01581 706.51562 145.17188 C 705.33179 143.25637 697.74229 144.21476 677.66797 148.81445 C 663.48952 152.06319 662.94688 151.08975 674.63477 143.38281 C 690.76496 132.74662 705.76832 115.0064 706.43359 105.7832 C 706.73845 101.55655 700.49004 102.23385 681.85742 108.44727 C 673.72588 111.15889 666.87874 113.37695 666.64062 113.37695 C 666.4027 113.37695 672.41684 107.18946 680.00391 99.626953 C 708.28252 71.439909 699.83522 68.614683 660.64258 93.152344 C 654.04258 97.284456 647.51757 101.36568 646.14258 102.2207 C 643.64257 103.77528 643.64367 103.77545 645.74414 101.32617 C 673.18578 69.327439 684.10112 51.376953 676.11914 51.376953 C 671.64743 51.376953 661.31707 59.782863 632.71289 86.701172 C 614.93622 103.43012 613.89909 103.91941 621.07422 92.177734 C 627.26191 82.051918 631.09986 71.610862 631.10742 64.876953 C 631.11763 56.046027 628.66073 55.159464 625.29102 62.777344 C 622.12615 69.932012 613.52429 75.387169 569.14258 98.390625 C 476.65229 146.32922 467.51696 153.45417 444.1543 195.87695 C 425.07615 230.51971 417.55325 237.923 400.22461 239.10742 C 375.91591 240.76892 361.07359 229.95884 329.45898 187.56836 C 302.16999 150.9779 292.94632 143.83141 273.14258 143.9375 C 243.66255 144.09543 221.07802 158.84758 218.23438 179.80273 C 217.31336 186.58975 216.50638 187.55134 207.95508 192.04492 C 201.28634 195.54925 194.83993 201.60562 193.88281 205.26562 C 193.44757 206.92998 193.95969 206.95115 203.03125 205.64258 C 229.68668 201.79753 247.78031 211.9807 239.22461 226.01172 C 229.50193 241.95656 206.96133 242.40086 172.92383 227.32031 C 126.9593 206.95542 124.87682 205.74153 124.02734 198.81445 C 123.29092 192.80938 121.24294 188.59906 116.50391 183.35352 C 113.14945 179.64053 113.05487 179.34107 114.56055 177.19141 C 117.75736 172.62733 115.59606 166.37059 107.99805 158.18555 C 103.85378 153.72111 103.63786 153.18605 103.5332 147.16992 C 103.33768 135.92909 98.876145 130.47703 88.515625 128.82031 C 84.514625 128.18053 84.513538 128.18118 86.894531 123.5293 C 92.42381 112.72644 86.82216 103.97163 76.892578 107.89844 C 75.313034 108.5231 75.142578 107.80185 75.142578 100.49414 C 75.142578 80.635943 66.203984 70.435601 60.142578 83.376953 C 56.567243 91.010446 55.142578 87.970272 55.142578 72.705078 C 55.142578 58.32969 51.110836 55.463126 43.117188 64.154297 C 37.472513 70.291516 37.472486 70.291164 36.269531 63.583984 C 31.792843 38.623802 26.498294 39.161698 23.539062 64.876953 C 22.757238 71.670896 22.722313 71.622615 18.625 57.876953 C 14.465517 43.922726 11.237374 37.501274 9.4179688 37.65625 z "
       transform="scale(0.26458333)"
       id="path4496" />
  </g>
</svg>
