<?xml version="1.0" encoding="UTF-8" standalone="no"?>
<!-- Created with Inkscape (http://www.inkscape.org/) -->

<svg
   xmlns:dc="http://purl.org/dc/elements/1.1/"
   xmlns:cc="http://creativecommons.org/ns#"
   xmlns:rdf="http://www.w3.org/1999/02/22-rdf-syntax-ns#"
   xmlns:svg="http://www.w3.org/2000/svg"
   xmlns="http://www.w3.org/2000/svg"
   xmlns:xlink="http://www.w3.org/1999/xlink"
   xmlns:sodipodi="http://sodipodi.sourceforge.net/DTD/sodipodi-0.dtd"
   xmlns:inkscape="http://www.inkscape.org/namespaces/inkscape"
   width="184.74303mm"
   height="73.322655mm"
   viewBox="0 0 184.74303 73.322654"
   version="1.1"
   id="svg8"
   inkscape:version="0.92.4 (5da689c313, 2019-01-14)"
   sodipodi:docname="logo2.es.svg">
  <defs
     id="defs2">
    <linearGradient
       inkscape:collect="always"
       id="linearGradient4854">
      <stop
         style="stop-color:#fff185;stop-opacity:1"
         offset="0"
         id="stop4850" />
      <stop
         style="stop-color:#ffffff;stop-opacity:1"
         offset="1"
         id="stop4852" />
    </linearGradient>
    <linearGradient
       inkscape:collect="always"
       id="linearGradient4815">
      <stop
         style="stop-color:#ffffdd;stop-opacity:0.90697676"
         offset="0"
         id="stop4811" />
      <stop
         style="stop-color:#ffa100;stop-opacity:1"
         offset="1"
         id="stop4813" />
    </linearGradient>
    <linearGradient
       id="linearGradient4595-3"
       inkscape:collect="always">
      <stop
         id="stop4591"
         offset="0"
         style="stop-color:#ffffdd;stop-opacity:0.90697676" />
      <stop
         id="stop4593"
         offset="1"
         style="stop-color:#c1a100;stop-opacity:1" />
    </linearGradient>
    <linearGradient
       inkscape:collect="always"
       id="linearGradient4493-3">
      <stop
         style="stop-color:#9e5700;stop-opacity:1"
         offset="0"
         id="stop4489" />
      <stop
         style="stop-color:#f5c700;stop-opacity:1"
         offset="1"
         id="stop4491" />
    </linearGradient>
    <linearGradient
       inkscape:collect="always"
       xlink:href="#linearGradient4493-3"
       id="linearGradient4495"
       x1="16.636105"
       y1="79.516586"
       x2="185.65324"
       y2="79.516586"
       gradientUnits="userSpaceOnUse"
       gradientTransform="matrix(2.612677,0,0,2.612677,-595.84114,-70.251881)" />
    <linearGradient
       inkscape:collect="always"
       xlink:href="#linearGradient4595-3"
       id="linearGradient4574"
       x1="2.0552444"
       y1="85.982872"
       x2="186.99261"
       y2="85.982872"
       gradientUnits="userSpaceOnUse" />
    <linearGradient
       inkscape:collect="always"
       xlink:href="#linearGradient4815"
       id="linearGradient4809"
       gradientUnits="userSpaceOnUse"
       x1="2.0552444"
       y1="85.982872"
       x2="704.19073"
       y2="372.86621" />
    <filter
       inkscape:collect="always"
       style="color-interpolation-filters:sRGB"
       id="filter4833"
       x="-0.021865444"
       width="1.0437309"
       y="-0.026596405"
       height="1.0531929">
      <feGaussianBlur
         inkscape:collect="always"
         stdDeviation="1.6848907"
         id="feGaussianBlur4835" />
    </filter>
    <linearGradient
       inkscape:collect="always"
       xlink:href="#linearGradient4854"
       id="linearGradient4843"
       x1="-553.8764"
       y1="137.49928"
       x2="-109.2892"
       y2="137.49928"
       gradientUnits="userSpaceOnUse" />
    <linearGradient
       inkscape:collect="always"
       xlink:href="#linearGradient4493-3"
       id="linearGradient4592"
       gradientUnits="userSpaceOnUse"
       gradientTransform="matrix(2.612677,0,0,2.612677,-595.84114,-70.251881)"
       x1="16.636105"
       y1="79.516586"
       x2="185.65324"
       y2="79.516586" />
    <linearGradient
       inkscape:collect="always"
       xlink:href="#linearGradient4854"
       id="linearGradient4594"
       gradientUnits="userSpaceOnUse"
       x1="-553.8764"
       y1="137.49928"
       x2="-109.2892"
       y2="137.49928" />
    <linearGradient
       inkscape:collect="always"
       xlink:href="#linearGradient4854"
       id="linearGradient917"
       x1="-472.45868"
       y1="318.22693"
       x2="144.21381"
       y2="318.22693"
       gradientUnits="userSpaceOnUse"
       gradientTransform="translate(-97.683436,-210.25197)" />
    <linearGradient
       inkscape:collect="always"
       xlink:href="#linearGradient4493-3"
       id="linearGradient925"
       x1="-472.45868"
       y1="318.22693"
       x2="144.21381"
       y2="318.22693"
       gradientUnits="userSpaceOnUse"
       gradientTransform="translate(-97.683436,-210.25197)" />
  </defs>
  <sodipodi:namedview
     id="base"
     pagecolor="#ffffff"
     bordercolor="#666666"
     borderopacity="1.0"
     inkscape:pageopacity="0.0"
     inkscape:pageshadow="2"
     inkscape:zoom="1"
     inkscape:cx="362.84837"
     inkscape:cy="57.458184"
     inkscape:document-units="mm"
     inkscape:current-layer="g4590"
     showgrid="false"
     fit-margin-top="0"
     fit-margin-left="0"
     fit-margin-right="0"
     fit-margin-bottom="0"
     inkscape:window-width="1366"
     inkscape:window-height="705"
     inkscape:window-x="-8"
     inkscape:window-y="-8"
     inkscape:window-maximized="1" />
  <metadata
     id="metadata5">
    <rdf:RDF>
      <cc:Work
         rdf:about="">
        <dc:format>image/svg+xml</dc:format>
        <dc:type
           rdf:resource="http://purl.org/dc/dcmitype/StillImage" />
        <dc:title></dc:title>
      </cc:Work>
    </rdf:RDF>
  </metadata>
  <g
     inkscape:label="Layer 1"
     inkscape:groupmode="layer"
     id="layer1"
     transform="translate(573.6573,-146.64515)">
    <g
       id="g4590"
       transform="matrix(0.28440083,0,0,0.28440083,-411.12194,139.78198)">
      <g
         style="fill:#e59e00;fill-opacity:1;filter:url(#filter4833)"
         transform="translate(-127.04967,18.213277)"
         inkscape:label="Layer 1"
         id="layer1-6-3">
        <path
           inkscape:connector-curvature="0"
           style="fill:#e59e00;fill-opacity:1;stroke:none;stroke-width:0.99999994"
           d="M 9.4179688,37.65625 C 6.92471,37.868624 7.0778433,50.4305 11.113281,72.876953 20.358307,124.30086 89.800704,232.17557 135.64258,266.32617 c 17.02383,12.68217 22.57198,18.60387 45.02344,48.05078 24.16072,31.68879 52.46361,61.62387 77.98632,82.48243 22.47179,18.36514 26.675,24.51068 23.1211,33.8164 -2.02842,5.31137 -4.0803,7.27535 -41.2461,39.47852 -35.29421,30.58148 -37.07142,33.07646 -31.41992,44.15429 3.3626,6.59127 18.16319,17.06534 24.11914,17.06836 2.75465,0.001 2.80992,1.03113 0.3418,6.33203 -8.10042,17.3977 3.81091,28.56835 23.82422,22.3418 5.04406,-1.5693 5.33678,-1.34408 3.73047,2.88086 -7.60224,19.99536 13.04636,29.65278 30.54687,14.28711 3.22895,-2.83506 3.22959,-2.8349 3.64844,5.92578 1.18385,24.76108 17.5455,28.27769 43.24414,9.29297 6.7693,-5.00077 6.19725,-5.09159 7.52344,1.18945 1.57218,7.44613 5.73085,15.50598 8.88476,17.21875 8.39521,4.55898 18.52531,-1.98376 22.7461,-14.6914 1.91917,-5.77807 1.87832,-5.77187 4.44726,-0.73633 10.85231,21.27228 34.45948,15.73194 32.68946,-7.67188 -0.56221,-7.43357 -0.56202,-7.43272 5.11328,-2.24218 16.69432,15.2683 29.788,10.72836 30.96679,-10.73633 0.44535,-8.10909 0.4461,-8.10882 5.57813,-6.15235 16.35394,6.23468 26.24136,-2.49979 25.29297,-22.34375 -0.50687,-10.60561 -0.50686,-10.60664 3.16601,-9.29492 16.71141,5.96844 25.01838,-12.88158 13.22852,-30.01758 -3.05499,-4.44026 -3.05429,-4.44065 2.65234,-6.0996 24.81366,-7.2135 28.60903,-23.03211 8.91992,-37.17579 -2.82035,-2.02597 -5.31834,-3.82696 -5.55078,-4.00195 -0.23255,-0.17495 1.39538,-1.87386 3.61914,-3.77734 7.05253,-6.03666 9.83072,-17.00128 5.42383,-21.40821 -5.4856,-5.48556 -27.92446,-8.79438 -74.12109,-10.93359 -15.5,-0.71773 -15.50068,-0.71849 -12.23438,-2.48633 3.01187,-1.62996 3.61857,-1.64894 7.78516,-0.23437 7.2731,2.46928 13.12902,1.06921 21.17578,-5.06836 3.05174,-2.3277 3.43736,-2.3959 5.5,-0.95117 5.61532,3.93312 23.77344,-2.65164 23.77344,-8.6211 0,-1.55542 0.41503,-1.86384 1.75,-1.30273 8.0307,3.37557 20.25,-2.02251 20.25,-8.94532 0,-3.10069 0.45595,-3.1478 5.5,-0.57617 7.07501,3.60703 14.502,0.9409 14.5,-5.20507 -5.7e-4,-2.13778 0.34576,-2.27149 5.05664,-1.94532 11.22901,0.77787 15.44529,-2.10395 13.06445,-8.93359 -1.40084,-4.01847 -1.42101,-4.00169 3.40821,-2.90039 8.19375,1.86857 16.33181,-2.95823 15.1289,-8.97266 -0.53219,-2.66091 -0.32825,-3.04388 1.61719,-3.04687 6.78928,-0.0114 13.14462,-7.92577 12.24219,-15.2461 -0.58557,-4.74953 -0.58523,-4.74981 2.69922,-4.75586 12.07934,-0.0205 20.07603,-7.97872 16.9707,-16.88671 -1.00948,-2.89577 -0.93914,-2.97612 4.41797,-5.1504 11.76313,-4.77431 16.39453,-10.12249 16.39453,-18.93164 0,-4.61776 0.24746,-5.16803 2.75,-6.11132 7.82971,-2.95132 12.62557,-10.77441 12.66601,-20.66407 0.0297,-7.25 0.0287,-7.25 4.58399,-7.25 8.27308,0 11.0479,-4.60492 12.54297,-20.82031 0.61489,-6.66917 0.91017,-7.42148 3.3164,-8.45117 15.93366,-6.81843 18.11732,-18.95204 5.625,-31.24609 -5.09907,-5.01813 -5.09794,-5.01899 5.07032,-4.64258 22.20676,0.82203 30.07234,-9.37037 13.48437,-17.47266 -9.3086,-4.54673 -10.47688,-5.78889 -6.40625,-6.81055 10.45792,-2.62476 37.73396,-29.91778 34.74023,-34.76171 -1.18383,-1.91551 -8.77333,-0.95712 -28.84765,3.64257 -14.17845,3.24874 -14.72109,2.2753 -3.0332,-5.43164 16.13019,-10.63619 31.13355,-28.37641 31.79882,-37.59961 0.30486,-4.22665 -5.94355,-3.54935 -24.57617,2.66407 -8.13154,2.71162 -14.97868,4.92968 -15.2168,4.92968 -0.23792,0 5.77622,-6.18749 13.36329,-13.749997 28.27861,-28.187044 19.83131,-31.01227 -19.36133,-6.474609 -6.6,4.132112 -13.12501,8.213336 -14.5,9.068356 -2.50001,1.55458 -2.49891,1.55475 -0.39844,-0.89453 27.44164,-31.998731 38.35698,-49.949217 30.375,-49.949217 -4.47171,0 -14.80207,8.40591 -43.40625,35.324219 -17.77667,16.728948 -18.8138,17.218238 -11.63867,5.476562 6.18769,-10.125816 10.02564,-20.566872 10.0332,-27.300781 0.0102,-8.830926 -2.44669,-9.717489 -5.8164,-2.099609 -3.16487,7.154668 -11.76673,12.609825 -56.14844,35.613281 -92.49029,47.938595 -101.62562,55.063545 -124.98828,97.486325 -19.07815,34.64276 -26.60105,42.04605 -43.92969,43.23047 -24.3087,1.6615 -39.15102,-9.14858 -70.76563,-51.53906 -27.28899,-36.59046 -36.51266,-43.73695 -56.3164,-43.63086 -29.48003,0.15793 -52.06456,14.91008 -54.9082,35.86523 -0.92102,6.78702 -1.728,7.74861 -10.2793,12.24219 -6.66874,3.50433 -13.11515,9.5607 -14.07227,13.2207 -0.43524,1.66436 0.0769,1.68553 9.14844,0.37696 26.65543,-3.84505 44.74906,6.33812 36.19336,20.36914 -9.72268,15.94484 -32.26328,16.38914 -66.30078,1.30859 -45.96453,-20.36489 -48.04701,-21.57878 -48.89649,-28.50586 -0.73642,-6.00507 -2.7844,-10.21539 -7.52343,-15.46093 -3.35446,-3.71299 -3.44904,-4.01245 -1.94336,-6.16211 3.19681,-4.56408 1.03551,-10.82082 -6.5625,-19.00586 -4.14427,-4.46444 -4.36019,-4.9995 -4.46485,-11.01563 -0.19552,-11.24083 -4.657055,-16.69289 -15.017575,-18.34961 -4.001,-0.63978 -4.002087,-0.63913 -1.621094,-5.29101 5.529279,-10.80286 -0.07237,-19.55767 -10.001953,-15.63086 -1.579544,0.62466 -1.75,-0.0966 -1.75,-7.4043 0,-19.858197 -8.938594,-30.058539 -15,-17.117187 -3.575335,7.633493 -5,4.593319 -5,-10.671875 0,-14.375388 -4.031742,-17.241952 -12.02539,-8.550781 -5.644675,6.137219 -5.644702,6.136867 -6.847657,-0.570313 -4.476688,-24.960182 -9.771237,-24.422286 -12.730469,1.292969 -0.781824,6.793943 -0.816749,6.745662 -4.914062,-7 C 14.465517,43.922726 11.237374,37.501274 9.4179688,37.65625 Z"
           transform="scale(0.26458333)"
           id="path4496-6" />
      </g>
      <g
         transform="translate(-108.90682,33.332324)"
         inkscape:label="Layer 1"
         id="layer1-6"
         style="fill:url(#linearGradient4574);fill-opacity:1">
        <path
           inkscape:connector-curvature="0"
           style="fill:url(#linearGradient4809);fill-opacity:1;stroke:none;stroke-width:0.99999994"
           d="M 9.4179688,37.65625 C 6.92471,37.868624 7.0778433,50.4305 11.113281,72.876953 20.358307,124.30086 89.800704,232.17557 135.64258,266.32617 c 17.02383,12.68217 22.57198,18.60387 45.02344,48.05078 24.16072,31.68879 52.46361,61.62387 77.98632,82.48243 22.47179,18.36514 26.675,24.51068 23.1211,33.8164 -2.02842,5.31137 -4.0803,7.27535 -41.2461,39.47852 -35.29421,30.58148 -37.07142,33.07646 -31.41992,44.15429 3.3626,6.59127 18.16319,17.06534 24.11914,17.06836 2.75465,0.001 2.80992,1.03113 0.3418,6.33203 -8.10042,17.3977 3.81091,28.56835 23.82422,22.3418 5.04406,-1.5693 5.33678,-1.34408 3.73047,2.88086 -7.60224,19.99536 13.04636,29.65278 30.54687,14.28711 3.22895,-2.83506 3.22959,-2.8349 3.64844,5.92578 1.18385,24.76108 17.5455,28.27769 43.24414,9.29297 6.7693,-5.00077 6.19725,-5.09159 7.52344,1.18945 1.57218,7.44613 5.73085,15.50598 8.88476,17.21875 8.39521,4.55898 18.52531,-1.98376 22.7461,-14.6914 1.91917,-5.77807 1.87832,-5.77187 4.44726,-0.73633 10.85231,21.27228 34.45948,15.73194 32.68946,-7.67188 -0.56221,-7.43357 -0.56202,-7.43272 5.11328,-2.24218 16.69432,15.2683 29.788,10.72836 30.96679,-10.73633 0.44535,-8.10909 0.4461,-8.10882 5.57813,-6.15235 16.35394,6.23468 26.24136,-2.49979 25.29297,-22.34375 -0.50687,-10.60561 -0.50686,-10.60664 3.16601,-9.29492 16.71141,5.96844 25.01838,-12.88158 13.22852,-30.01758 -3.05499,-4.44026 -3.05429,-4.44065 2.65234,-6.0996 24.81366,-7.2135 28.60903,-23.03211 8.91992,-37.17579 -2.82035,-2.02597 -5.31834,-3.82696 -5.55078,-4.00195 -0.23255,-0.17495 1.39538,-1.87386 3.61914,-3.77734 7.05253,-6.03666 9.83072,-17.00128 5.42383,-21.40821 -5.4856,-5.48556 -27.92446,-8.79438 -74.12109,-10.93359 -15.5,-0.71773 -15.50068,-0.71849 -12.23438,-2.48633 3.01187,-1.62996 3.61857,-1.64894 7.78516,-0.23437 7.2731,2.46928 13.12902,1.06921 21.17578,-5.06836 3.05174,-2.3277 3.43736,-2.3959 5.5,-0.95117 5.61532,3.93312 23.77344,-2.65164 23.77344,-8.6211 0,-1.55542 0.41503,-1.86384 1.75,-1.30273 8.0307,3.37557 20.25,-2.02251 20.25,-8.94532 0,-3.10069 0.45595,-3.1478 5.5,-0.57617 7.07501,3.60703 14.502,0.9409 14.5,-5.20507 -5.7e-4,-2.13778 0.34576,-2.27149 5.05664,-1.94532 11.22901,0.77787 15.44529,-2.10395 13.06445,-8.93359 -1.40084,-4.01847 -1.42101,-4.00169 3.40821,-2.90039 8.19375,1.86857 16.33181,-2.95823 15.1289,-8.97266 -0.53219,-2.66091 -0.32825,-3.04388 1.61719,-3.04687 6.78928,-0.0114 13.14462,-7.92577 12.24219,-15.2461 -0.58557,-4.74953 -0.58523,-4.74981 2.69922,-4.75586 12.07934,-0.0205 20.07603,-7.97872 16.9707,-16.88671 -1.00948,-2.89577 -0.93914,-2.97612 4.41797,-5.1504 11.76313,-4.77431 16.39453,-10.12249 16.39453,-18.93164 0,-4.61776 0.24746,-5.16803 2.75,-6.11132 7.82971,-2.95132 12.62557,-10.77441 12.66601,-20.66407 0.0297,-7.25 0.0287,-7.25 4.58399,-7.25 8.27308,0 11.0479,-4.60492 12.54297,-20.82031 0.61489,-6.66917 0.91017,-7.42148 3.3164,-8.45117 15.93366,-6.81843 18.11732,-18.95204 5.625,-31.24609 -5.09907,-5.01813 -5.09794,-5.01899 5.07032,-4.64258 22.20676,0.82203 30.07234,-9.37037 13.48437,-17.47266 -9.3086,-4.54673 -10.47688,-5.78889 -6.40625,-6.81055 10.45792,-2.62476 37.73396,-29.91778 34.74023,-34.76171 -1.18383,-1.91551 -8.77333,-0.95712 -28.84765,3.64257 -14.17845,3.24874 -14.72109,2.2753 -3.0332,-5.43164 16.13019,-10.63619 31.13355,-28.37641 31.79882,-37.59961 0.30486,-4.22665 -5.94355,-3.54935 -24.57617,2.66407 -8.13154,2.71162 -14.97868,4.92968 -15.2168,4.92968 -0.23792,0 5.77622,-6.18749 13.36329,-13.749997 28.27861,-28.187044 19.83131,-31.01227 -19.36133,-6.474609 -6.6,4.132112 -13.12501,8.213336 -14.5,9.068356 -2.50001,1.55458 -2.49891,1.55475 -0.39844,-0.89453 27.44164,-31.998731 38.35698,-49.949217 30.375,-49.949217 -4.47171,0 -14.80207,8.40591 -43.40625,35.324219 -17.77667,16.728948 -18.8138,17.218238 -11.63867,5.476562 6.18769,-10.125816 10.02564,-20.566872 10.0332,-27.300781 0.0102,-8.830926 -2.44669,-9.717489 -5.8164,-2.099609 -3.16487,7.154668 -11.76673,12.609825 -56.14844,35.613281 -92.49029,47.938595 -101.62562,55.063545 -124.98828,97.486325 -19.07815,34.64276 -26.60105,42.04605 -43.92969,43.23047 -24.3087,1.6615 -39.15102,-9.14858 -70.76563,-51.53906 -27.28899,-36.59046 -36.51266,-43.73695 -56.3164,-43.63086 -29.48003,0.15793 -52.06456,14.91008 -54.9082,35.86523 -0.92102,6.78702 -1.728,7.74861 -10.2793,12.24219 -6.66874,3.50433 -13.11515,9.5607 -14.07227,13.2207 -0.43524,1.66436 0.0769,1.68553 9.14844,0.37696 26.65543,-3.84505 44.74906,6.33812 36.19336,20.36914 -9.72268,15.94484 -32.26328,16.38914 -66.30078,1.30859 -45.96453,-20.36489 -48.04701,-21.57878 -48.89649,-28.50586 -0.73642,-6.00507 -2.7844,-10.21539 -7.52343,-15.46093 -3.35446,-3.71299 -3.44904,-4.01245 -1.94336,-6.16211 3.19681,-4.56408 1.03551,-10.82082 -6.5625,-19.00586 -4.14427,-4.46444 -4.36019,-4.9995 -4.46485,-11.01563 -0.19552,-11.24083 -4.657055,-16.69289 -15.017575,-18.34961 -4.001,-0.63978 -4.002087,-0.63913 -1.621094,-5.29101 5.529279,-10.80286 -0.07237,-19.55767 -10.001953,-15.63086 -1.579544,0.62466 -1.75,-0.0966 -1.75,-7.4043 0,-19.858197 -8.938594,-30.058539 -15,-17.117187 -3.575335,7.633493 -5,4.593319 -5,-10.671875 0,-14.375388 -4.031742,-17.241952 -12.02539,-8.550781 -5.644675,6.137219 -5.644702,6.136867 -6.847657,-0.570313 -4.476688,-24.960182 -9.771237,-24.422286 -12.730469,1.292969 -0.781824,6.793943 -0.816749,6.745662 -4.914062,-7 C 14.465517,43.922726 11.237374,37.501274 9.4179688,37.65625 Z"
           transform="scale(0.26458333)"
           id="path4496" />
      </g>
      <text
         xml:space="preserve"
         style="font-style:normal;font-variant:normal;font-weight:normal;font-stretch:normal;font-size:124.04245758px;line-height:1.25;font-family:'Sansita One';-inkscape-font-specification:'Sansita One';letter-spacing:0px;word-spacing:0px;fill:url(#linearGradient925);fill-opacity:1;stroke:url(#linearGradient917);stroke-width:22.38038445;stroke-miterlimit:4;stroke-dasharray:none;stroke-opacity:1;paint-order:markers stroke fill"
         x="-560.55951"
         y="174.86859"
         id="text78"><tspan
           sodipodi:role="line"
           id="tspan76"
           x="-560.55951"
           y="174.86859"
           style="font-size:136.44670105px;fill:url(#linearGradient925);fill-opacity:1;stroke:url(#linearGradient917);stroke-width:22.38038445;stroke-miterlimit:4;stroke-dasharray:none;stroke-opacity:1">Lázaro</tspan></text>
      <text
         xml:space="preserve"
         style="font-style:normal;font-variant:normal;font-weight:normal;font-stretch:normal;font-size:70.49781799px;line-height:1.25;font-family:'Sansita One';-inkscape-font-specification:'Sansita One';letter-spacing:0px;word-spacing:0px;fill:#fff186;fill-opacity:1;stroke:#feb300;stroke-width:1.43894637;stroke-miterlimit:4;stroke-dasharray:none;stroke-opacity:1"
         x="-565.57617"
         y="251.85423"
         id="text929"
         transform="scale(1.0056725,0.9943595)"><tspan
           sodipodi:role="line"
           x="-565.57617"
           y="251.85423"
           style="fill:#fff186;fill-opacity:1;stroke:#feb300;stroke-width:1.43894637;stroke-miterlimit:4;stroke-dasharray:none;stroke-opacity:1"
           id="tspan843">periódico callejero</tspan></text>
    </g>
  </g>
</svg>
